<mxfile host="Electron" agent="Mozilla/5.0 (X11; Linux x86_64) AppleWebKit/537.36 (KHTML, like Gecko) draw.io/25.0.2 Chrome/128.0.6613.186 Electron/32.2.5 Safari/537.36" version="25.0.2">
  <diagram name="Page-1" id="-H_mtQnk-PTXWXPvYvuk">
    <mxGraphModel dx="1430" dy="873" grid="1" gridSize="10" guides="1" tooltips="1" connect="1" arrows="1" fold="1" page="1" pageScale="1" pageWidth="1169" pageHeight="827" math="0" shadow="0">
      <root>
        <mxCell id="0" />
        <mxCell id="1" parent="0" />
        <mxCell id="zA23MoTUsTF4_91t8viU-2" value="MongoDB" style="shape=cylinder3;whiteSpace=wrap;html=1;boundedLbl=1;backgroundOutline=1;size=15;strokeColor=#0000FF;strokeWidth=2;" parent="1" vertex="1">
          <mxGeometry x="570" y="360" width="60" height="80" as="geometry" />
        </mxCell>
        <mxCell id="zA23MoTUsTF4_91t8viU-3" value="pymongo-api" style="rounded=1;whiteSpace=wrap;html=1;" parent="1" vertex="1">
          <mxGeometry x="370" y="370" width="120" height="60" as="geometry" />
        </mxCell>
        <mxCell id="zA23MoTUsTF4_91t8viU-4" style="edgeStyle=orthogonalEdgeStyle;rounded=0;orthogonalLoop=1;jettySize=auto;html=1;exitX=1;exitY=0.5;exitDx=0;exitDy=0;entryX=0;entryY=0.5;entryDx=0;entryDy=0;entryPerimeter=0;" parent="1" source="zA23MoTUsTF4_91t8viU-3" target="zA23MoTUsTF4_91t8viU-2" edge="1">
          <mxGeometry relative="1" as="geometry" />
        </mxCell>
        <mxCell id="mKw6a-kfwTMlM3zWuT2E-1" value="MongoDB" style="shape=cylinder3;whiteSpace=wrap;html=1;boundedLbl=1;backgroundOutline=1;size=15;strokeColor=#FF3333;strokeWidth=2;" parent="1" vertex="1">
          <mxGeometry x="570" y="220" width="60" height="80" as="geometry" />
        </mxCell>
        <mxCell id="mKw6a-kfwTMlM3zWuT2E-2" value="MongoDB" style="shape=cylinder3;whiteSpace=wrap;html=1;boundedLbl=1;backgroundOutline=1;size=15;strokeColor=#009900;strokeWidth=2;" parent="1" vertex="1">
          <mxGeometry x="690" y="310" width="60" height="80" as="geometry" />
        </mxCell>
        <mxCell id="mKw6a-kfwTMlM3zWuT2E-3" value="MongoDB" style="shape=cylinder3;whiteSpace=wrap;html=1;boundedLbl=1;backgroundOutline=1;size=15;strokeColor=#FFD966;strokeWidth=2;" parent="1" vertex="1">
          <mxGeometry x="690" y="425" width="60" height="80" as="geometry" />
        </mxCell>
        <mxCell id="mKw6a-kfwTMlM3zWuT2E-4" value="&lt;font style=&quot;font-size: 14px;&quot;&gt;Роутер&lt;/font&gt;" style="text;html=1;align=center;verticalAlign=middle;whiteSpace=wrap;rounded=0;" parent="1" vertex="1">
          <mxGeometry x="570" y="480" width="60" height="30" as="geometry" />
        </mxCell>
        <mxCell id="mKw6a-kfwTMlM3zWuT2E-5" value="&lt;font style=&quot;font-size: 14px;&quot;&gt;Конфигурационный&amp;nbsp;&lt;/font&gt;&lt;div&gt;&lt;font style=&quot;font-size: 14px;&quot;&gt;сервер&lt;/font&gt;&lt;/div&gt;" style="text;html=1;align=center;verticalAlign=middle;whiteSpace=wrap;rounded=0;" parent="1" vertex="1">
          <mxGeometry x="420" y="120" width="170" height="30" as="geometry" />
        </mxCell>
        <mxCell id="mKw6a-kfwTMlM3zWuT2E-6" value="&lt;font style=&quot;font-size: 16px;&quot;&gt;&lt;b&gt;Задание 4. Реализация хэшированного шардирования с репликацией и кэшированием&lt;/b&gt;&lt;/font&gt;&lt;div&gt;&lt;br&gt;&lt;/div&gt;" style="text;html=1;align=center;verticalAlign=middle;whiteSpace=wrap;rounded=0;" parent="1" vertex="1">
          <mxGeometry x="295" y="60" width="580" height="30" as="geometry" />
        </mxCell>
        <mxCell id="mKw6a-kfwTMlM3zWuT2E-7" value="" style="endArrow=classic;startArrow=classic;html=1;rounded=0;entryX=0;entryY=0.5;entryDx=0;entryDy=0;entryPerimeter=0;exitX=1;exitY=0.5;exitDx=0;exitDy=0;exitPerimeter=0;" parent="1" source="zA23MoTUsTF4_91t8viU-2" target="mKw6a-kfwTMlM3zWuT2E-2" edge="1">
          <mxGeometry width="50" height="50" relative="1" as="geometry">
            <mxPoint x="630" y="390" as="sourcePoint" />
            <mxPoint x="680" y="340" as="targetPoint" />
          </mxGeometry>
        </mxCell>
        <mxCell id="mKw6a-kfwTMlM3zWuT2E-8" value="" style="endArrow=classic;startArrow=classic;html=1;rounded=0;entryX=0;entryY=0.5;entryDx=0;entryDy=0;entryPerimeter=0;" parent="1" target="mKw6a-kfwTMlM3zWuT2E-3" edge="1">
          <mxGeometry width="50" height="50" relative="1" as="geometry">
            <mxPoint x="630" y="400" as="sourcePoint" />
            <mxPoint x="680" y="350" as="targetPoint" />
          </mxGeometry>
        </mxCell>
        <mxCell id="mKw6a-kfwTMlM3zWuT2E-12" value="" style="endArrow=classic;startArrow=classic;html=1;rounded=0;entryX=0.5;entryY=1;entryDx=0;entryDy=0;entryPerimeter=0;" parent="1" target="mKw6a-kfwTMlM3zWuT2E-1" edge="1">
          <mxGeometry width="50" height="50" relative="1" as="geometry">
            <mxPoint x="600" y="360" as="sourcePoint" />
            <mxPoint x="650" y="310" as="targetPoint" />
          </mxGeometry>
        </mxCell>
        <mxCell id="mKw6a-kfwTMlM3zWuT2E-15" value="" style="endArrow=classic;html=1;rounded=0;strokeColor=#FF0000;strokeWidth=2;" parent="1" edge="1">
          <mxGeometry width="50" height="50" relative="1" as="geometry">
            <mxPoint x="750" y="350" as="sourcePoint" />
            <mxPoint x="800" y="350" as="targetPoint" />
          </mxGeometry>
        </mxCell>
        <mxCell id="mKw6a-kfwTMlM3zWuT2E-17" value="MongoDB" style="shape=cylinder3;whiteSpace=wrap;html=1;boundedLbl=1;backgroundOutline=1;size=15;strokeColor=#009900;strokeWidth=2;" parent="1" vertex="1">
          <mxGeometry x="830" y="220" width="60" height="80" as="geometry" />
        </mxCell>
        <mxCell id="mKw6a-kfwTMlM3zWuT2E-18" value="MongoDB" style="shape=cylinder3;whiteSpace=wrap;html=1;boundedLbl=1;backgroundOutline=1;size=15;strokeColor=#009900;strokeWidth=2;" parent="1" vertex="1">
          <mxGeometry x="910" y="220" width="60" height="80" as="geometry" />
        </mxCell>
        <mxCell id="mKw6a-kfwTMlM3zWuT2E-19" value="MongoDB" style="shape=cylinder3;whiteSpace=wrap;html=1;boundedLbl=1;backgroundOutline=1;size=15;strokeColor=#009900;strokeWidth=2;" parent="1" vertex="1">
          <mxGeometry x="990" y="220" width="60" height="80" as="geometry" />
        </mxCell>
        <mxCell id="mKw6a-kfwTMlM3zWuT2E-20" value="MongoDB" style="shape=cylinder3;whiteSpace=wrap;html=1;boundedLbl=1;backgroundOutline=1;size=15;strokeColor=#FFD966;strokeWidth=2;" parent="1" vertex="1">
          <mxGeometry x="820" y="500" width="60" height="80" as="geometry" />
        </mxCell>
        <mxCell id="mKw6a-kfwTMlM3zWuT2E-21" value="MongoDB" style="shape=cylinder3;whiteSpace=wrap;html=1;boundedLbl=1;backgroundOutline=1;size=15;strokeColor=#FFD966;strokeWidth=2;" parent="1" vertex="1">
          <mxGeometry x="900" y="500" width="60" height="80" as="geometry" />
        </mxCell>
        <mxCell id="mKw6a-kfwTMlM3zWuT2E-22" value="MongoDB" style="shape=cylinder3;whiteSpace=wrap;html=1;boundedLbl=1;backgroundOutline=1;size=15;strokeColor=#FFD966;strokeWidth=2;" parent="1" vertex="1">
          <mxGeometry x="980" y="500" width="60" height="80" as="geometry" />
        </mxCell>
        <mxCell id="mKw6a-kfwTMlM3zWuT2E-23" value="&lt;b&gt;&lt;font color=&quot;#009900&quot; style=&quot;font-size: 14px;&quot;&gt;Реплика&lt;/font&gt;&lt;/b&gt;&lt;div&gt;&lt;b&gt;&lt;font color=&quot;#009900&quot; style=&quot;font-size: 14px;&quot;&gt;repl1_1&lt;/font&gt;&lt;/b&gt;&lt;/div&gt;&lt;div&gt;&lt;b&gt;&lt;font color=&quot;#009900&quot; style=&quot;font-size: 14px;&quot;&gt;:27021&lt;/font&gt;&lt;/b&gt;&lt;/div&gt;" style="text;html=1;align=center;verticalAlign=middle;resizable=0;points=[];autosize=1;strokeColor=none;fillColor=none;" parent="1" vertex="1">
          <mxGeometry x="815" y="123" width="90" height="60" as="geometry" />
        </mxCell>
        <mxCell id="mKw6a-kfwTMlM3zWuT2E-24" value="&lt;font color=&quot;#009900&quot; style=&quot;font-size: 14px;&quot;&gt;&lt;b&gt;Реплика&lt;/b&gt;&lt;/font&gt;&lt;div&gt;&lt;font color=&quot;#009900&quot; style=&quot;font-size: 14px;&quot;&gt;&lt;b&gt;repl1_2&lt;/b&gt;&lt;/font&gt;&lt;/div&gt;&lt;div&gt;&lt;font color=&quot;#009900&quot; style=&quot;font-size: 14px;&quot;&gt;&lt;b&gt;:27022&lt;/b&gt;&lt;/font&gt;&lt;/div&gt;" style="text;html=1;align=center;verticalAlign=middle;resizable=0;points=[];autosize=1;strokeColor=none;fillColor=none;" parent="1" vertex="1">
          <mxGeometry x="895" y="123" width="90" height="60" as="geometry" />
        </mxCell>
        <mxCell id="mKw6a-kfwTMlM3zWuT2E-25" value="&lt;font color=&quot;#009900&quot; style=&quot;font-size: 14px;&quot;&gt;&lt;b&gt;Реплика&lt;/b&gt;&lt;/font&gt;&lt;div&gt;&lt;font color=&quot;#009900&quot; style=&quot;font-size: 14px;&quot;&gt;&lt;b&gt;repl1_3&lt;/b&gt;&lt;/font&gt;&lt;/div&gt;&lt;div&gt;&lt;font color=&quot;#009900&quot; style=&quot;font-size: 14px;&quot;&gt;&lt;b&gt;:27023&lt;/b&gt;&lt;/font&gt;&lt;/div&gt;" style="text;html=1;align=center;verticalAlign=middle;resizable=0;points=[];autosize=1;strokeColor=none;fillColor=none;" parent="1" vertex="1">
          <mxGeometry x="975" y="123" width="90" height="60" as="geometry" />
        </mxCell>
        <mxCell id="mKw6a-kfwTMlM3zWuT2E-26" value="&lt;font color=&quot;#009900&quot; style=&quot;font-size: 14px;&quot;&gt;&lt;b&gt;Реплика&lt;/b&gt;&lt;/font&gt;&lt;div&gt;&lt;font color=&quot;#009900&quot; style=&quot;font-size: 14px;&quot;&gt;&lt;b&gt;repl2_1&lt;/b&gt;&lt;/font&gt;&lt;/div&gt;&lt;div&gt;&lt;font color=&quot;#009900&quot; style=&quot;font-size: 14px;&quot;&gt;&lt;b&gt;:27024&lt;/b&gt;&lt;/font&gt;&lt;/div&gt;" style="text;html=1;align=center;verticalAlign=middle;resizable=0;points=[];autosize=1;strokeColor=none;fillColor=none;" parent="1" vertex="1">
          <mxGeometry x="805" y="620" width="90" height="60" as="geometry" />
        </mxCell>
        <mxCell id="mKw6a-kfwTMlM3zWuT2E-27" value="&lt;font color=&quot;#009900&quot; style=&quot;font-size: 14px;&quot;&gt;&lt;b&gt;Реплика&lt;/b&gt;&lt;/font&gt;&lt;div&gt;&lt;font color=&quot;#009900&quot; style=&quot;font-size: 14px;&quot;&gt;&lt;b&gt;repl2_2&lt;/b&gt;&lt;/font&gt;&lt;/div&gt;&lt;div&gt;&lt;font color=&quot;#009900&quot; style=&quot;font-size: 14px;&quot;&gt;&lt;b&gt;:27025&lt;/b&gt;&lt;/font&gt;&lt;/div&gt;" style="text;html=1;align=center;verticalAlign=middle;resizable=0;points=[];autosize=1;strokeColor=none;fillColor=none;" parent="1" vertex="1">
          <mxGeometry x="885" y="620" width="90" height="60" as="geometry" />
        </mxCell>
        <mxCell id="mKw6a-kfwTMlM3zWuT2E-29" value="" style="endArrow=classic;html=1;rounded=0;entryX=0.5;entryY=0;entryDx=0;entryDy=0;entryPerimeter=0;dashed=1;dashPattern=8 8;strokeColor=#FFD966;strokeWidth=2;" parent="1" target="mKw6a-kfwTMlM3zWuT2E-22" edge="1">
          <mxGeometry width="50" height="50" relative="1" as="geometry">
            <mxPoint x="750" y="480" as="sourcePoint" />
            <mxPoint x="1050" y="480" as="targetPoint" />
            <Array as="points">
              <mxPoint x="1010" y="480" />
            </Array>
          </mxGeometry>
        </mxCell>
        <mxCell id="mKw6a-kfwTMlM3zWuT2E-30" value="" style="endArrow=classic;html=1;rounded=0;entryX=0.5;entryY=0;entryDx=0;entryDy=0;entryPerimeter=0;dashed=1;strokeColor=#FFD966;strokeWidth=2;" parent="1" target="mKw6a-kfwTMlM3zWuT2E-21" edge="1">
          <mxGeometry width="50" height="50" relative="1" as="geometry">
            <mxPoint x="930" y="480" as="sourcePoint" />
            <mxPoint x="970" y="430" as="targetPoint" />
          </mxGeometry>
        </mxCell>
        <mxCell id="mKw6a-kfwTMlM3zWuT2E-31" value="" style="endArrow=classic;html=1;rounded=0;entryX=0.5;entryY=0;entryDx=0;entryDy=0;entryPerimeter=0;dashed=1;strokeWidth=2;strokeColor=#FFD966;" parent="1" target="mKw6a-kfwTMlM3zWuT2E-20" edge="1">
          <mxGeometry width="50" height="50" relative="1" as="geometry">
            <mxPoint x="850" y="480" as="sourcePoint" />
            <mxPoint x="900" y="430" as="targetPoint" />
          </mxGeometry>
        </mxCell>
        <mxCell id="mKw6a-kfwTMlM3zWuT2E-32" value="" style="endArrow=classic;html=1;rounded=0;entryX=0.5;entryY=1;entryDx=0;entryDy=0;entryPerimeter=0;dashed=1;strokeColor=#00CC00;strokeWidth=2;" parent="1" target="mKw6a-kfwTMlM3zWuT2E-19" edge="1">
          <mxGeometry width="50" height="50" relative="1" as="geometry">
            <mxPoint x="750" y="340" as="sourcePoint" />
            <mxPoint x="800" y="290" as="targetPoint" />
            <Array as="points">
              <mxPoint x="1020" y="340" />
            </Array>
          </mxGeometry>
        </mxCell>
        <mxCell id="mKw6a-kfwTMlM3zWuT2E-33" value="" style="endArrow=classic;html=1;rounded=0;entryX=0.5;entryY=1;entryDx=0;entryDy=0;entryPerimeter=0;dashed=1;strokeColor=#00CC00;strokeWidth=2;" parent="1" target="mKw6a-kfwTMlM3zWuT2E-18" edge="1">
          <mxGeometry width="50" height="50" relative="1" as="geometry">
            <mxPoint x="940" y="340" as="sourcePoint" />
            <mxPoint x="990" y="290" as="targetPoint" />
          </mxGeometry>
        </mxCell>
        <mxCell id="mKw6a-kfwTMlM3zWuT2E-34" value="" style="endArrow=classic;html=1;rounded=0;entryX=0.5;entryY=1;entryDx=0;entryDy=0;entryPerimeter=0;dashed=1;strokeColor=#00CC00;strokeWidth=2;" parent="1" target="mKw6a-kfwTMlM3zWuT2E-17" edge="1">
          <mxGeometry width="50" height="50" relative="1" as="geometry">
            <mxPoint x="860" y="340" as="sourcePoint" />
            <mxPoint x="900" y="290" as="targetPoint" />
          </mxGeometry>
        </mxCell>
        <mxCell id="mKw6a-kfwTMlM3zWuT2E-35" value="" style="endArrow=classic;html=1;rounded=0;strokeColor=#FF0000;strokeWidth=2;" parent="1" edge="1">
          <mxGeometry width="50" height="50" relative="1" as="geometry">
            <mxPoint x="850" y="580" as="sourcePoint" />
            <mxPoint x="800" y="450" as="targetPoint" />
            <Array as="points">
              <mxPoint x="850" y="610" />
              <mxPoint x="1060" y="610" />
              <mxPoint x="1060" y="450" />
            </Array>
          </mxGeometry>
        </mxCell>
        <mxCell id="mKw6a-kfwTMlM3zWuT2E-36" value="" style="endArrow=classic;html=1;rounded=0;strokeColor=#FF0000;" parent="1" edge="1">
          <mxGeometry width="50" height="50" relative="1" as="geometry">
            <mxPoint x="930" y="580" as="sourcePoint" />
            <mxPoint x="930" y="610" as="targetPoint" />
          </mxGeometry>
        </mxCell>
        <mxCell id="mKw6a-kfwTMlM3zWuT2E-37" value="" style="endArrow=classic;html=1;rounded=0;strokeColor=#FF0000;" parent="1" edge="1">
          <mxGeometry width="50" height="50" relative="1" as="geometry">
            <mxPoint x="1010" y="580" as="sourcePoint" />
            <mxPoint x="1010" y="610" as="targetPoint" />
          </mxGeometry>
        </mxCell>
        <mxCell id="mKw6a-kfwTMlM3zWuT2E-38" value="" style="endArrow=classic;html=1;rounded=0;strokeColor=#FF0000;strokeWidth=2;" parent="1" edge="1">
          <mxGeometry width="50" height="50" relative="1" as="geometry">
            <mxPoint x="1020" y="220" as="sourcePoint" />
            <mxPoint x="780" y="260" as="targetPoint" />
            <Array as="points">
              <mxPoint x="1020" y="190" />
              <mxPoint x="780" y="190" />
            </Array>
          </mxGeometry>
        </mxCell>
        <mxCell id="mKw6a-kfwTMlM3zWuT2E-39" value="" style="endArrow=classic;html=1;rounded=0;strokeColor=#FF3333;strokeWidth=2;" parent="1" edge="1">
          <mxGeometry width="50" height="50" relative="1" as="geometry">
            <mxPoint x="940" y="220" as="sourcePoint" />
            <mxPoint x="940" y="190" as="targetPoint" />
          </mxGeometry>
        </mxCell>
        <mxCell id="mKw6a-kfwTMlM3zWuT2E-40" value="" style="endArrow=classic;html=1;rounded=0;strokeColor=#FF0000;strokeWidth=2;" parent="1" edge="1">
          <mxGeometry width="50" height="50" relative="1" as="geometry">
            <mxPoint x="860" y="220" as="sourcePoint" />
            <mxPoint x="860" y="190" as="targetPoint" />
          </mxGeometry>
        </mxCell>
        <mxCell id="mKw6a-kfwTMlM3zWuT2E-41" value="Шард 1" style="swimlane;whiteSpace=wrap;html=1;strokeColor=#009900;strokeWidth=2;" parent="1" vertex="1">
          <mxGeometry x="680" y="100" width="410" height="300" as="geometry" />
        </mxCell>
        <mxCell id="8V42qVTOC1k6mHcDL1kq-3" value="Шард 1(мастер)&lt;div&gt;&lt;br&gt;&lt;/div&gt;" style="text;html=1;align=center;verticalAlign=middle;resizable=0;points=[];autosize=1;strokeColor=none;fillColor=none;" parent="mKw6a-kfwTMlM3zWuT2E-41" vertex="1">
          <mxGeometry x="-10" y="160" width="130" height="40" as="geometry" />
        </mxCell>
        <mxCell id="8V42qVTOC1k6mHcDL1kq-7" value="&lt;font color=&quot;#006600&quot;&gt;&lt;b&gt;shard1_2:27018&lt;/b&gt;&lt;/font&gt;" style="text;html=1;align=center;verticalAlign=middle;resizable=0;points=[];autosize=1;strokeColor=none;fillColor=none;" parent="mKw6a-kfwTMlM3zWuT2E-41" vertex="1">
          <mxGeometry x="-10" y="180" width="130" height="30" as="geometry" />
        </mxCell>
        <mxCell id="mKw6a-kfwTMlM3zWuT2E-42" value="Шард 2" style="swimlane;whiteSpace=wrap;html=1;fillColor=#fff2cc;strokeColor=#d6b656;strokeWidth=2;" parent="1" vertex="1">
          <mxGeometry x="680" y="400" width="410" height="320" as="geometry" />
        </mxCell>
        <mxCell id="8V42qVTOC1k6mHcDL1kq-6" value="Шард 2(мастер)&lt;div&gt;&lt;br&gt;&lt;/div&gt;" style="text;html=1;align=center;verticalAlign=middle;resizable=0;points=[];autosize=1;strokeColor=none;fillColor=none;" parent="mKw6a-kfwTMlM3zWuT2E-42" vertex="1">
          <mxGeometry x="-10" y="140" width="130" height="40" as="geometry" />
        </mxCell>
        <mxCell id="8V42qVTOC1k6mHcDL1kq-8" value="&lt;font color=&quot;#cccc00&quot;&gt;&lt;b&gt;shard1_2:27019&lt;/b&gt;&lt;/font&gt;" style="text;html=1;align=center;verticalAlign=middle;resizable=0;points=[];autosize=1;strokeColor=none;fillColor=none;" parent="mKw6a-kfwTMlM3zWuT2E-42" vertex="1">
          <mxGeometry x="-10" y="110" width="130" height="30" as="geometry" />
        </mxCell>
        <mxCell id="mKw6a-kfwTMlM3zWuT2E-28" value="&lt;font color=&quot;#009900&quot; style=&quot;font-size: 14px;&quot;&gt;&lt;b&gt;Реплика&lt;/b&gt;&lt;/font&gt;&lt;div&gt;&lt;font color=&quot;#009900&quot; style=&quot;font-size: 14px;&quot;&gt;&lt;b&gt;repl2_3&lt;/b&gt;&lt;/font&gt;&lt;/div&gt;&lt;div&gt;&lt;font color=&quot;#009900&quot; style=&quot;font-size: 14px;&quot;&gt;&lt;b&gt;:27026&lt;/b&gt;&lt;/font&gt;&lt;/div&gt;" style="text;html=1;align=center;verticalAlign=middle;resizable=0;points=[];autosize=1;strokeColor=none;fillColor=none;" parent="mKw6a-kfwTMlM3zWuT2E-42" vertex="1">
          <mxGeometry x="290" y="220" width="90" height="60" as="geometry" />
        </mxCell>
        <mxCell id="mKw6a-kfwTMlM3zWuT2E-14" value="" style="endArrow=classic;html=1;rounded=0;exitX=1;exitY=0.5;exitDx=0;exitDy=0;exitPerimeter=0;entryX=1;entryY=0.5;entryDx=0;entryDy=0;entryPerimeter=0;strokeColor=#FF3333;strokeWidth=2;" parent="1" source="mKw6a-kfwTMlM3zWuT2E-3" target="mKw6a-kfwTMlM3zWuT2E-1" edge="1">
          <mxGeometry width="50" height="50" relative="1" as="geometry">
            <mxPoint x="760" y="470" as="sourcePoint" />
            <mxPoint x="800" y="210" as="targetPoint" />
            <Array as="points">
              <mxPoint x="800" y="465" />
              <mxPoint x="800" y="260" />
            </Array>
          </mxGeometry>
        </mxCell>
        <mxCell id="8V42qVTOC1k6mHcDL1kq-1" value="&lt;font color=&quot;#ff0000&quot;&gt;&lt;b style=&quot;&quot;&gt;configSrv1_3&lt;/b&gt;&lt;/font&gt;&lt;div&gt;&lt;font color=&quot;#ff0000&quot;&gt;&lt;b style=&quot;&quot;&gt;:27017&lt;/b&gt;&lt;/font&gt;&lt;/div&gt;" style="text;html=1;align=center;verticalAlign=middle;resizable=0;points=[];autosize=1;strokeColor=none;fillColor=none;" parent="1" vertex="1">
          <mxGeometry x="545" y="178" width="110" height="40" as="geometry" />
        </mxCell>
        <mxCell id="8V42qVTOC1k6mHcDL1kq-2" value="&lt;font color=&quot;#0000cc&quot;&gt;&lt;b style=&quot;&quot;&gt;router1:27020&lt;/b&gt;&lt;/font&gt;" style="text;html=1;align=center;verticalAlign=middle;resizable=0;points=[];autosize=1;strokeColor=none;fillColor=none;" parent="1" vertex="1">
          <mxGeometry x="530" y="450" width="120" height="30" as="geometry" />
        </mxCell>
        <mxCell id="y_HtmazN0kneG0MGvAsQ-1" value="MongoDB" style="shape=cylinder3;whiteSpace=wrap;html=1;boundedLbl=1;backgroundOutline=1;size=15;strokeColor=#FF3333;strokeWidth=2;" parent="1" vertex="1">
          <mxGeometry x="470" y="220" width="60" height="80" as="geometry" />
        </mxCell>
        <mxCell id="y_HtmazN0kneG0MGvAsQ-2" value="MongoDB" style="shape=cylinder3;whiteSpace=wrap;html=1;boundedLbl=1;backgroundOutline=1;size=15;strokeColor=#FF3333;strokeWidth=2;" parent="1" vertex="1">
          <mxGeometry x="370" y="220" width="60" height="80" as="geometry" />
        </mxCell>
        <mxCell id="y_HtmazN0kneG0MGvAsQ-3" value="" style="endArrow=classic;startArrow=classic;html=1;rounded=0;entryX=0;entryY=0.5;entryDx=0;entryDy=0;entryPerimeter=0;" parent="1" target="mKw6a-kfwTMlM3zWuT2E-1" edge="1">
          <mxGeometry width="50" height="50" relative="1" as="geometry">
            <mxPoint x="530" y="260" as="sourcePoint" />
            <mxPoint x="580" y="210" as="targetPoint" />
          </mxGeometry>
        </mxCell>
        <mxCell id="y_HtmazN0kneG0MGvAsQ-4" value="" style="endArrow=classic;startArrow=classic;html=1;rounded=0;entryX=0;entryY=0.5;entryDx=0;entryDy=0;entryPerimeter=0;" parent="1" target="y_HtmazN0kneG0MGvAsQ-1" edge="1">
          <mxGeometry width="50" height="50" relative="1" as="geometry">
            <mxPoint x="430" y="260" as="sourcePoint" />
            <mxPoint x="480" y="210" as="targetPoint" />
          </mxGeometry>
        </mxCell>
        <mxCell id="y_HtmazN0kneG0MGvAsQ-5" value="&lt;font color=&quot;#ff0000&quot;&gt;&lt;b style=&quot;&quot;&gt;configSrv1_2&lt;/b&gt;&lt;/font&gt;&lt;div&gt;&lt;font color=&quot;#ff0000&quot;&gt;&lt;b style=&quot;&quot;&gt;:27016&lt;/b&gt;&lt;/font&gt;&lt;/div&gt;" style="text;html=1;align=center;verticalAlign=middle;resizable=0;points=[];autosize=1;strokeColor=none;fillColor=none;" parent="1" vertex="1">
          <mxGeometry x="440" y="178" width="110" height="40" as="geometry" />
        </mxCell>
        <mxCell id="y_HtmazN0kneG0MGvAsQ-6" value="&lt;font color=&quot;#ff0000&quot;&gt;&lt;b style=&quot;&quot;&gt;configSrv1_1&lt;/b&gt;&lt;/font&gt;&lt;div&gt;&lt;font color=&quot;#ff0000&quot;&gt;&lt;b style=&quot;&quot;&gt;:27015&lt;/b&gt;&lt;/font&gt;&lt;/div&gt;" style="text;html=1;align=center;verticalAlign=middle;resizable=0;points=[];autosize=1;strokeColor=none;fillColor=none;" parent="1" vertex="1">
          <mxGeometry x="345" y="178" width="110" height="40" as="geometry" />
        </mxCell>
        <mxCell id="SX4wt5dCsI62jrLSf9M_-1" value="Redis" style="shape=cylinder3;whiteSpace=wrap;html=1;boundedLbl=1;backgroundOutline=1;size=15;strokeWidth=2;strokeColor=#990099;" parent="1" vertex="1">
          <mxGeometry x="370" y="530" width="120" height="110" as="geometry" />
        </mxCell>
        <mxCell id="SX4wt5dCsI62jrLSf9M_-2" value="" style="shape=flexArrow;endArrow=classic;startArrow=classic;html=1;rounded=0;exitX=0.5;exitY=0;exitDx=0;exitDy=0;exitPerimeter=0;" parent="1" source="SX4wt5dCsI62jrLSf9M_-1" edge="1">
          <mxGeometry width="100" height="100" relative="1" as="geometry">
            <mxPoint x="330" y="530" as="sourcePoint" />
            <mxPoint x="430" y="430" as="targetPoint" />
          </mxGeometry>
        </mxCell>
        <mxCell id="SX4wt5dCsI62jrLSf9M_-3" value="&lt;font style=&quot;font-size: 14px;&quot; color=&quot;#0000cc&quot;&gt;&lt;b&gt;redis1:6379&lt;/b&gt;&lt;/font&gt;" style="text;html=1;align=center;verticalAlign=middle;resizable=0;points=[];autosize=1;strokeColor=none;fillColor=none;" parent="1" vertex="1">
          <mxGeometry x="435" y="500" width="120" height="30" as="geometry" />
        </mxCell>
      </root>
    </mxGraphModel>
  </diagram>
</mxfile>
